<svg
        xmlns="http://www.w3.org/2000/svg"
        xmlns:xlink="http://www.w3.org/1999/xlink"
        width="1565px" height="263px">
    <path fill-rule="evenodd"  fill="rgb(233, 255, 199)"
          d="M1218.047,262.719 L1188.047,262.719 L1146.797,108.594 L1145.672,108.594 L1100.672,262.719 L1070.297,262.719 L1026.422,75.969 L1054.922,75.969 L1086.797,231.219 L1087.922,231.219 L1132.922,75.969 L1159.922,75.969 L1200.797,231.219 L1201.922,231.219 L1236.796,75.969 L1265.296,75.969 L1218.047,262.719 ZM842.672,262.719 L808.172,228.219 L808.172,110.469 L842.672,75.969 L938.672,75.969 L973.172,110.469 L973.172,228.219 L938.672,262.719 L842.672,262.719 ZM945.422,119.094 L926.672,100.719 L854.672,100.719 L835.922,119.094 L835.922,219.594 L854.672,237.969 L926.672,237.969 L945.422,219.594 L945.422,119.094 ZM685.172,140.469 L685.172,262.719 L657.422,262.719 L657.422,75.969 L684.422,75.969 L684.422,109.344 L717.797,75.969 L766.172,75.969 L766.172,100.719 L724.922,100.719 L685.172,140.469 ZM521.297,140.469 L521.297,262.719 L493.547,262.719 L493.547,75.969 L520.547,75.969 L520.547,109.344 L553.922,75.969 L602.297,75.969 L602.297,100.719 L561.047,100.719 L521.297,140.469 ZM291.047,262.719 L256.547,228.219 L256.547,110.469 L291.047,75.969 L387.047,75.969 L421.547,110.469 L421.547,228.219 L387.047,262.719 L291.047,262.719 ZM393.797,119.094 L375.047,100.719 L303.047,100.719 L284.297,119.094 L284.297,219.594 L303.047,237.969 L375.047,237.969 L393.797,219.594 L393.797,119.094 ZM0.422,262.719 L0.422,0.219 L147.797,0.219 L182.297,34.719 L182.297,107.469 L164.297,125.469 L193.922,155.094 L193.922,225.969 L157.172,262.719 L0.422,262.719 ZM154.547,43.344 L135.797,24.969 L28.172,24.969 L28.172,118.719 L135.797,118.719 L154.547,99.969 L154.547,43.344 ZM166.172,164.094 L144.422,142.719 L28.172,142.719 L28.172,237.969 L144.422,237.969 L166.172,216.594 L166.172,164.094 Z"/>
    <path fill-rule="evenodd"  fill="rgb(233, 255, 199)"
          d="M116.985,69.992 L155.985,38.992 L155.985,100.992 L116.985,69.992 Z"/>
    <path fill-rule="evenodd"  fill="rgb(187, 205, 159)"
          d="M1520.297,220.719 L1564.547,220.719 L1564.547,262.719 L1496.672,262.719 L1458.047,224.469 L1458.047,117.594 L1424.297,117.594 L1424.297,75.969 L1458.797,75.969 L1458.797,15.219 L1507.547,15.219 L1507.547,75.969 L1564.547,75.969 L1564.547,117.969 L1507.547,117.969 L1507.547,208.344 L1520.297,220.719 ZM1321.922,0.219 L1372.922,0.219 L1372.922,262.719 L1321.922,262.719 L1321.922,0.219 Z"/>
</svg>